<mxfile host="65bd71144e">
    <diagram name="Page-1" id="cX--IuZKZo21eHTuOP-7">
        <mxGraphModel dx="1343" dy="835" grid="0" gridSize="10" guides="1" tooltips="1" connect="1" arrows="1" fold="1" page="1" pageScale="1" pageWidth="1169" pageHeight="827" background="#ffffff" math="0" shadow="0">
            <root>
                <mxCell id="0"/>
                <mxCell id="1" parent="0"/>
                <mxCell id="d_dgDio1V9lW3O_3MtaG-4" value="" style="sketch=0;points=[[0,0,0],[0.25,0,0],[0.5,0,0],[0.75,0,0],[1,0,0],[0,1,0],[0.25,1,0],[0.5,1,0],[0.75,1,0],[1,1,0],[0,0.25,0],[0,0.5,0],[0,0.75,0],[1,0.25,0],[1,0.5,0],[1,0.75,0]];outlineConnect=0;fontColor=#232F3E;gradientColor=#60A337;gradientDirection=north;fillColor=#277116;strokeColor=#ffffff;dashed=0;verticalLabelPosition=bottom;verticalAlign=top;align=center;html=1;fontSize=12;fontStyle=0;aspect=fixed;shape=mxgraph.aws4.resourceIcon;resIcon=mxgraph.aws4.s3;" parent="1" vertex="1">
                    <mxGeometry x="390" y="400" width="78" height="78" as="geometry"/>
                </mxCell>
                <mxCell id="d_dgDio1V9lW3O_3MtaG-5" value="" style="sketch=0;points=[[0,0,0],[0.25,0,0],[0.5,0,0],[0.75,0,0],[1,0,0],[0,1,0],[0.25,1,0],[0.5,1,0],[0.75,1,0],[1,1,0],[0,0.25,0],[0,0.5,0],[0,0.75,0],[1,0.25,0],[1,0.5,0],[1,0.75,0]];outlineConnect=0;fontColor=#232F3E;gradientColor=#60A337;gradientDirection=north;fillColor=#277116;strokeColor=#ffffff;dashed=0;verticalLabelPosition=bottom;verticalAlign=top;align=center;html=1;fontSize=12;fontStyle=0;aspect=fixed;shape=mxgraph.aws4.resourceIcon;resIcon=mxgraph.aws4.s3;" parent="1" vertex="1">
                    <mxGeometry x="780" y="622" width="78" height="78" as="geometry"/>
                </mxCell>
                <mxCell id="d_dgDio1V9lW3O_3MtaG-6" value="" style="sketch=0;points=[[0,0,0],[0.25,0,0],[0.5,0,0],[0.75,0,0],[1,0,0],[0,1,0],[0.25,1,0],[0.5,1,0],[0.75,1,0],[1,1,0],[0,0.25,0],[0,0.5,0],[0,0.75,0],[1,0.25,0],[1,0.5,0],[1,0.75,0]];outlineConnect=0;fontColor=#232F3E;gradientColor=#F78E04;gradientDirection=north;fillColor=#D05C17;strokeColor=#ffffff;dashed=0;verticalLabelPosition=bottom;verticalAlign=top;align=center;html=1;fontSize=12;fontStyle=0;aspect=fixed;shape=mxgraph.aws4.resourceIcon;resIcon=mxgraph.aws4.lambda;" parent="1" vertex="1">
                    <mxGeometry x="546" y="400" width="78" height="78" as="geometry"/>
                </mxCell>
                <mxCell id="d_dgDio1V9lW3O_3MtaG-7" value="&lt;font style=&quot;font-size: 16px;&quot;&gt;lambda-code-&lt;/font&gt;" style="text;strokeColor=none;fillColor=none;html=1;fontSize=24;fontStyle=1;verticalAlign=middle;align=center;" parent="1" vertex="1">
                    <mxGeometry x="379" y="478" width="100" height="40" as="geometry"/>
                </mxCell>
                <mxCell id="d_dgDio1V9lW3O_3MtaG-9" value="&lt;font style=&quot;font-size: 16px;&quot;&gt;ingestion-zone-&lt;/font&gt;" style="text;strokeColor=none;fillColor=none;html=1;fontSize=24;fontStyle=1;verticalAlign=middle;align=center;" parent="1" vertex="1">
                    <mxGeometry x="769" y="700" width="100" height="40" as="geometry"/>
                </mxCell>
                <mxCell id="d_dgDio1V9lW3O_3MtaG-17" value="" style="sketch=0;points=[[0,0,0],[0.25,0,0],[0.5,0,0],[0.75,0,0],[1,0,0],[0,1,0],[0.25,1,0],[0.5,1,0],[0.75,1,0],[1,1,0],[0,0.25,0],[0,0.5,0],[0,0.75,0],[1,0.25,0],[1,0.5,0],[1,0.75,0]];outlineConnect=0;fontColor=#232F3E;gradientColor=#4D72F3;gradientDirection=north;fillColor=#3334B9;strokeColor=#ffffff;dashed=0;verticalLabelPosition=bottom;verticalAlign=top;align=center;html=1;fontSize=12;fontStyle=0;aspect=fixed;shape=mxgraph.aws4.resourceIcon;resIcon=mxgraph.aws4.database;" parent="1" vertex="1">
                    <mxGeometry x="242" y="630" width="78" height="78" as="geometry"/>
                </mxCell>
                <mxCell id="d_dgDio1V9lW3O_3MtaG-18" value="&lt;font style=&quot;font-size: 16px;&quot;&gt;ToteSys&lt;/font&gt;" style="text;strokeColor=none;fillColor=none;html=1;fontSize=24;fontStyle=1;verticalAlign=middle;align=center;" parent="1" vertex="1">
                    <mxGeometry x="231" y="700" width="100" height="40" as="geometry"/>
                </mxCell>
                <mxCell id="d_dgDio1V9lW3O_3MtaG-20" value="" style="sketch=0;points=[[0,0,0],[0.25,0,0],[0.5,0,0],[0.75,0,0],[1,0,0],[0,1,0],[0.25,1,0],[0.5,1,0],[0.75,1,0],[1,1,0],[0,0.25,0],[0,0.5,0],[0,0.75,0],[1,0.25,0],[1,0.5,0],[1,0.75,0]];points=[[0,0,0],[0.25,0,0],[0.5,0,0],[0.75,0,0],[1,0,0],[0,1,0],[0.25,1,0],[0.5,1,0],[0.75,1,0],[1,1,0],[0,0.25,0],[0,0.5,0],[0,0.75,0],[1,0.25,0],[1,0.5,0],[1,0.75,0]];outlineConnect=0;fontColor=#232F3E;gradientColor=#F34482;gradientDirection=north;fillColor=#BC1356;strokeColor=#ffffff;dashed=0;verticalLabelPosition=bottom;verticalAlign=top;align=center;html=1;fontSize=12;fontStyle=0;aspect=fixed;shape=mxgraph.aws4.resourceIcon;resIcon=mxgraph.aws4.cloudwatch_2;" parent="1" vertex="1">
                    <mxGeometry x="546" y="240" width="78" height="78" as="geometry"/>
                </mxCell>
                <mxCell id="d_dgDio1V9lW3O_3MtaG-21" value="" style="sketch=0;outlineConnect=0;fontColor=#232F3E;gradientColor=none;fillColor=#232F3D;strokeColor=none;dashed=0;verticalLabelPosition=bottom;verticalAlign=top;align=center;html=1;fontSize=12;fontStyle=0;aspect=fixed;pointerEvents=1;shape=mxgraph.aws4.email_2;" parent="1" vertex="1">
                    <mxGeometry x="546" y="80" width="78" height="49" as="geometry"/>
                </mxCell>
                <mxCell id="d_dgDio1V9lW3O_3MtaG-22" value="" style="edgeStyle=orthogonalEdgeStyle;html=1;endArrow=open;elbow=vertical;startArrow=none;endFill=0;strokeColor=#545B64;entryX=0.5;entryY=1;entryDx=0;entryDy=0;entryPerimeter=0;rounded=1;" parent="1" target="d_dgDio1V9lW3O_3MtaG-6" edge="1">
                    <mxGeometry width="100" relative="1" as="geometry">
                        <mxPoint x="320" y="670" as="sourcePoint"/>
                        <mxPoint x="580" y="670" as="targetPoint"/>
                    </mxGeometry>
                </mxCell>
                <mxCell id="d_dgDio1V9lW3O_3MtaG-23" value="" style="edgeStyle=orthogonalEdgeStyle;html=1;endArrow=open;elbow=vertical;startArrow=none;endFill=0;strokeColor=#545B64;rounded=1;" parent="1" target="d_dgDio1V9lW3O_3MtaG-5" edge="1">
                    <mxGeometry width="100" relative="1" as="geometry">
                        <mxPoint x="624" y="438.5" as="sourcePoint"/>
                        <mxPoint x="830" y="450" as="targetPoint"/>
                        <Array as="points">
                            <mxPoint x="820" y="439"/>
                        </Array>
                    </mxGeometry>
                </mxCell>
                <mxCell id="d_dgDio1V9lW3O_3MtaG-24" value="" style="edgeStyle=orthogonalEdgeStyle;html=1;endArrow=open;elbow=vertical;startArrow=none;endFill=0;strokeColor=#545B64;rounded=0;entryX=0;entryY=0.5;entryDx=0;entryDy=0;entryPerimeter=0;" parent="1" target="d_dgDio1V9lW3O_3MtaG-6" edge="1">
                    <mxGeometry width="100" relative="1" as="geometry">
                        <mxPoint x="468" y="438.5" as="sourcePoint"/>
                        <mxPoint x="568" y="438.5" as="targetPoint"/>
                    </mxGeometry>
                </mxCell>
                <mxCell id="d_dgDio1V9lW3O_3MtaG-25" value="" style="edgeStyle=orthogonalEdgeStyle;html=1;endArrow=open;elbow=vertical;startArrow=none;endFill=0;strokeColor=#545B64;rounded=0;entryX=0.5;entryY=1;entryDx=0;entryDy=0;entryPerimeter=0;" parent="1" target="d_dgDio1V9lW3O_3MtaG-20" edge="1">
                    <mxGeometry width="100" relative="1" as="geometry">
                        <mxPoint x="585" y="399" as="sourcePoint"/>
                        <mxPoint x="685" y="399" as="targetPoint"/>
                    </mxGeometry>
                </mxCell>
                <mxCell id="d_dgDio1V9lW3O_3MtaG-26" value="" style="edgeStyle=orthogonalEdgeStyle;html=1;endArrow=open;elbow=vertical;startArrow=none;endFill=0;strokeColor=#545B64;rounded=0;entryX=0.5;entryY=1;entryDx=0;entryDy=0;entryPerimeter=0;exitX=0.5;exitY=0;exitDx=0;exitDy=0;exitPerimeter=0;" parent="1" source="d_dgDio1V9lW3O_3MtaG-20" edge="1">
                    <mxGeometry width="100" relative="1" as="geometry">
                        <mxPoint x="585" y="210" as="sourcePoint"/>
                        <mxPoint x="585" y="129" as="targetPoint"/>
                    </mxGeometry>
                </mxCell>
                <mxCell id="d_dgDio1V9lW3O_3MtaG-27" value="" style="sketch=0;points=[[0,0,0],[0.25,0,0],[0.5,0,0],[0.75,0,0],[1,0,0],[0,1,0],[0.25,1,0],[0.5,1,0],[0.75,1,0],[1,1,0],[0,0.25,0],[0,0.5,0],[0,0.75,0],[1,0.25,0],[1,0.5,0],[1,0.75,0]];outlineConnect=0;fontColor=#232F3E;gradientColor=#60A337;gradientDirection=north;fillColor=#277116;strokeColor=#ffffff;dashed=0;verticalLabelPosition=bottom;verticalAlign=top;align=center;html=1;fontSize=12;fontStyle=0;aspect=fixed;shape=mxgraph.aws4.resourceIcon;resIcon=mxgraph.aws4.s3;" parent="1" vertex="1">
                    <mxGeometry x="242" y="79" width="78" height="78" as="geometry"/>
                </mxCell>
                <mxCell id="d_dgDio1V9lW3O_3MtaG-28" value="&lt;span style=&quot;font-size: 16px;&quot;&gt;nc-terraform-state-&lt;/span&gt;" style="text;strokeColor=none;fillColor=none;html=1;fontSize=24;fontStyle=1;verticalAlign=middle;align=center;" parent="1" vertex="1">
                    <mxGeometry x="231" y="154" width="100" height="40" as="geometry"/>
                </mxCell>
            </root>
        </mxGraphModel>
    </diagram>
</mxfile>